<svg width="24" height="24" fill="none" xmlns="http://www.w3.org/2000/svg"><rect x="2" y="2" width="20" height="20" rx="2" fill="#B9BADB"/><path d="M17.553 6.921a14.244 14.244 0 0 0-3.3-.921 8.21 8.21 0 0 0-.423.78 13.631 13.631 0 0 0-3.659 0A7.976 7.976 0 0 0 9.744 6a14.196 14.196 0 0 0-3.304.924c-2.089 2.803-2.655 5.537-2.372 8.232A13.89 13.89 0 0 0 8.116 17a8.82 8.82 0 0 0 .867-1.268 9.024 9.024 0 0 1-1.365-.59c.115-.076.227-.155.335-.236 2.632 1.094 5.493 1.094 8.094 0 .11.081.222.16.335.235-.433.232-.891.43-1.368.592.25.445.54.87.867 1.268a13.86 13.86 0 0 0 4.051-1.844c.332-3.124-.568-5.833-2.378-8.235ZM9.343 13.5c-.791 0-1.44-.655-1.44-1.453s.635-1.455 1.44-1.455c.803 0 1.451.656 1.438 1.455a1.442 1.442 0 0 1-1.439 1.453Zm5.315 0c-.79 0-1.439-.655-1.439-1.453s.635-1.455 1.439-1.455 1.452.656 1.438 1.455c0 .798-.634 1.453-1.438 1.453Z" fill="#2E5AEE"/></svg>